<svg width="56" height="55" viewBox="0 0 56 55" fill="none" xmlns="http://www.w3.org/2000/svg">
<path d="M11.667 32.0833H42.317C44.6802 32.0833 45.8619 32.0833 46.8025 31.6506C47.6312 31.2694 48.3274 30.6573 48.8047 29.8905C49.3465 29.0201 49.477 27.8666 49.738 25.5598L51.103 13.4941C51.1827 12.7895 51.2225 12.4372 51.1072 12.1645C51.0059 11.925 50.8248 11.7264 50.5937 11.601C50.3305 11.4583 49.9696 11.4583 49.2477 11.4583H10.5003M4.66663 4.58331H7.57965C8.1971 4.58331 8.50583 4.58331 8.74736 4.69864C8.96 4.80017 9.13621 4.96275 9.25265 5.16485C9.38491 5.39442 9.40417 5.69704 9.44268 6.30229L11.5572 39.531C11.5958 40.1363 11.615 40.4389 11.7473 40.6684C11.8637 40.8705 12.0399 41.0331 12.2526 41.1347C12.4941 41.25 12.8028 41.25 13.4203 41.25H44.3333M17.5 49.2708H17.5233M38.5 49.2708H38.5233M18.6666 49.2708C18.6666 49.9036 18.1443 50.4166 17.5 50.4166C16.8556 50.4166 16.3333 49.9036 16.3333 49.2708C16.3333 48.638 16.8556 48.125 17.5 48.125C18.1443 48.125 18.6666 48.638 18.6666 49.2708ZM39.6666 49.2708C39.6666 49.9036 39.1443 50.4166 38.5 50.4166C37.8556 50.4166 37.3333 49.9036 37.3333 49.2708C37.3333 48.638 37.8556 48.125 38.5 48.125C39.1443 48.125 39.6666 48.638 39.6666 49.2708Z" stroke="black" stroke-width="2" stroke-linecap="round" stroke-linejoin="round"/>
</svg>
